<svg id="Calque_1" data-name="Calque 1" xmlns="http://www.w3.org/2000/svg" xmlns:xlink="http://www.w3.org/1999/xlink" width="528.9" height="176.1" viewBox="0 0 528.9 176.1"><defs><clipPath id="clip-path"><rect x="0.35" y="13.66" width="528.18" height="152.87" style="fill:none"/></clipPath><clipPath id="clip-path-3"><rect x="49.84" y="61.66" width="44.05" height="44.05" style="fill:none"/></clipPath><clipPath id="clip-path-4"><path d="M49.84,83.64a22.36,22.36,0,0,1,22.35-22,21.7,21.7,0,0,1,21.7,22.07,22.36,22.36,0,0,1-22.35,22,21.7,21.7,0,0,1-21.7-22.07" style="fill:none"/></clipPath><linearGradient id="Dégradé_sans_nom_15" x1="0.36" y1="176.37" x2="1.47" y2="176.37" gradientTransform="matrix(38.81, 0, 0, -38.81, 36.35, 6927.81)" gradientUnits="userSpaceOnUse"><stop offset="0" stop-color="#d01227"/><stop offset="0.25" stop-color="#d42437"/><stop offset="0.5" stop-color="#da3a4c"/><stop offset="0.57" stop-color="#d83244"/><stop offset="0.83" stop-color="#d21b2f"/><stop offset="1" stop-color="#d01227"/><stop offset="1" stop-color="#d01227"/></linearGradient><clipPath id="clip-path-5"><rect x="55.68" y="97.15" width="90.37" height="63.8" style="fill:none"/></clipPath><clipPath id="clip-path-6"><path d="M113.17,125.7a233.39,233.39,0,0,1,23.09-10.5c5.71-2.32,14.88-11.78,6.26-16.22a16.81,16.81,0,0,0-9.23-1.75c-11,.59-24.57,4.43-38.17,11.38C68.21,122.37,50.62,143.9,57,155.66c1.16,2.14,2.78,3.31,6.37,4.23a80.93,80.93,0,0,0,13,1.07,79.88,79.88,0,0,0,40.44-10.89c-13.47,5.37-25.16,6.1-27.78,1.23-3.12-5.77,7.68-17.23,24.13-25.6" style="fill:none"/></clipPath><linearGradient id="Dégradé_sans_nom_14" x1="0.07" y1="176.26" x2="1.18" y2="176.26" gradientTransform="matrix(81.42, 0, 0, -81.42, 49.85, 14480.99)" gradientUnits="userSpaceOnUse"><stop offset="0" stop-color="#e9511c"/><stop offset="0.5" stop-color="#ec671c"/><stop offset="0.75" stop-color="#ea5a1c"/><stop offset="1" stop-color="#e9511c"/></linearGradient><clipPath id="clip-path-7"><path d="M126.73,56.79h0ZM72.34,68.71c-36.51,17.84-57,49.8-45.83,71.37a27.44,27.44,0,0,0,5.28,7.07,69.14,69.14,0,0,0,18.6,9.32,20.69,20.69,0,0,1-4.75-6.11c-8.58-16.53,8.89-41.87,39-56.59C99.33,86.6,114.1,81.48,126.6,81.65c14.17-.3,19.11-4.93,18.09-11.48-1.14-7.3-8.35-13-17.9-13.37h-.06q-3.33-.32-6.83-.32c-14.55,0-31,4.15-47.56,12.24" style="fill:none"/></clipPath><linearGradient id="Dégradé_sans_nom_13" x1="0.02" y1="176.24" x2="1.13" y2="176.24" gradientTransform="matrix(109.36, 0, 0, -109.36, 20.81, 19379.74)" gradientUnits="userSpaceOnUse"><stop offset="0" stop-color="#f28b1a"/><stop offset="0.3" stop-color="#f6a01e"/><stop offset="0.5" stop-color="#f8a91f"/><stop offset="0.78" stop-color="#f4951c"/><stop offset="1" stop-color="#f28c1a"/></linearGradient><clipPath id="clip-path-8"><path d="M43.87,40.91C17.37,57.42,1.61,81.87,2.36,102c.53,6,3.65,14,7.1,20.11A72.87,72.87,0,0,0,17,132.92C5.22,104.18,31.69,75,66.25,57.14a122.21,122.21,0,0,1,41.62-13.07l2.14-.23C118.2,43,122.7,39,120.38,34c-1.36-2.95-4.81-5.46-9-6.95a52.32,52.32,0,0,0-6.08-1.34,63.89,63.89,0,0,0-10-.77c-15.85,0-34.21,5.33-51.33,16" style="fill:none"/></clipPath><linearGradient id="Dégradé_sans_nom_12" x1="0.01" y1="176.27" x2="1.11" y2="176.27" gradientTransform="matrix(106.92, 0, 0, -106.92, 1.78, 18925.07)" gradientUnits="userSpaceOnUse"><stop offset="0" stop-color="#fdc208"/><stop offset="0.5" stop-color="#ffd000"/><stop offset="0.63" stop-color="#fecb03"/><stop offset="1" stop-color="#fdc208"/></linearGradient><clipPath id="clip-path-9"><path d="M72.71,14.16C35.18,15.41.79,44.25.57,86.76,3,68.53,13.57,52.35,33.94,38.14c14.2-9.91,29.5-15.78,42.59-16.8l.63-.05.17,0h0c3.57-.38,6.5-1.62,7.14-3.22s-1.31-3.14-4.62-3.8c-1.54-.09-3.08-.13-4.61-.13-.83,0-1.67,0-2.5,0" style="fill:none"/></clipPath><linearGradient id="Dégradé_sans_nom_11" y1="176.38" x2="1.11" y2="176.38" gradientTransform="matrix(75.69, 0, 0, -75.69, 0.19, 13400.28)" gradientUnits="userSpaceOnUse"><stop offset="0" stop-color="#d0d715"/><stop offset="0.5" stop-color="#d9db1e"/><stop offset="1" stop-color="#d0d715"/></linearGradient></defs><title>logo-soredis</title><g style="clip-path:url(#clip-path)"><g style="clip-path:url(#clip-path)"><path d="M214.74,120.74a4.2,4.2,0,0,0-3.94-2.48A3.62,3.62,0,0,0,207,121.8c0,2,2,2.87,3.57,3.57l1.52.67c3,1.3,5.47,2.78,5.47,6.42a7.2,7.2,0,0,1-14.28,1.14l2.48-.69a4.7,4.7,0,0,0,4.57,4.24A4.59,4.59,0,0,0,215,132.7c0-2.67-2.09-3.58-4.21-4.54l-1.39-.61c-2.66-1.21-5-2.57-5-5.84,0-3.54,3-5.82,6.38-5.82a6.56,6.56,0,0,1,5.91,3.55Z" style="fill:#fff"/><path d="M223.06,128a7.48,7.48,0,1,1,7.48,7.48,7.48,7.48,0,0,1-7.48-7.48m2.43,0a5.06,5.06,0,1,0,5-5.26,5,5,0,0,0-5,5.26" style="fill:#fff"/><rect x="244.31" y="110.11" width="2.42" height="24.97" style="fill:#fff"/><path d="M256.51,128.78c0,2.39.27,4.45,3.21,4.45s3.21-2.06,3.21-4.45v-7.93h2.42v8.2c0,3.79-1.42,6.42-5.63,6.42s-5.63-2.63-5.63-6.42v-8.2h2.42Z" style="fill:#fff"/><polygon points="275.34 135.08 272.92 135.08 272.92 123.09 271.44 123.09 271.44 120.85 272.92 120.85 272.92 115.73 275.34 115.73 275.34 120.85 277.88 120.85 277.88 123.09 275.34 123.09 275.34 135.08" style="fill:#fff"/><path d="M286.48,115.49a1.73,1.73,0,1,1-1.73-1.72,1.73,1.73,0,0,1,1.73,1.72M286,135.08h-2.43V120.85H286Z" style="fill:#fff"/><path d="M292.77,128a7.48,7.48,0,1,1,7.48,7.48,7.48,7.48,0,0,1-7.48-7.48m2.43,0a5.06,5.06,0,1,0,5.05-5.26A5,5,0,0,0,295.2,128" style="fill:#fff"/><path d="M316.51,122.57h.06a4.77,4.77,0,0,1,4.05-2.11c3.94,0,4.85,2.84,4.85,6.17v8.45h-2.42v-8c0-2.3-.19-4.35-3-4.35-3.33,0-3.54,3.08-3.54,5.63v6.75h-2.42V120.85h2.42Z" style="fill:#fff"/><path d="M338.85,124.15a2.27,2.27,0,0,0-1.94-1.45,1.72,1.72,0,0,0-1.76,1.57c0,1.3,1.64,1.79,3.3,2.48s3.3,1.7,3.3,4.09a4.65,4.65,0,0,1-4.81,4.63,5.1,5.1,0,0,1-5-3.6l2.14-.91c.61,1.33,1.31,2.27,2.91,2.27a2.17,2.17,0,0,0,2.3-2.18c0-3.18-6.42-2.09-6.42-6.57a4.05,4.05,0,0,1,4.24-4,4.29,4.29,0,0,1,3.78,2.63Z" style="fill:#fff"/><path d="M360.55,116.29h3.75c4.15,0,7.63,1.51,7.63,6.17a5.06,5.06,0,0,1-2.24,4.46,5.8,5.8,0,0,1,4.33,5.84c0,4.54-3.66,6.35-8.17,6.35h-5.3Zm2.54,10h1c2.88,0,5.33-.34,5.33-3.88s-2.18-3.81-5.3-3.81h-1Zm0,10.41h2.55c2.84,0,5.84-.69,5.84-4.18s-3.39-4-6.18-4h-2.21Z" style="fill:#fff"/><path d="M379.5,128a7.48,7.48,0,1,1,7.47,7.48A7.47,7.47,0,0,1,379.5,128m2.42,0A5.06,5.06,0,1,0,387,122.7a5,5,0,0,0-5.05,5.26" style="fill:#fff"/><path d="M404.2,115.49a1.73,1.73,0,1,1-1.73-1.72,1.73,1.73,0,0,1,1.73,1.72m-.52,19.59h-2.42V120.85h2.42Z" style="fill:#fff"/><path d="M417.52,124.15a2.27,2.27,0,0,0-1.94-1.45,1.72,1.72,0,0,0-1.76,1.57c0,1.3,1.64,1.79,3.31,2.48s3.29,1.7,3.29,4.09a4.65,4.65,0,0,1-4.81,4.63,5.1,5.1,0,0,1-5-3.6l2.15-.91c.6,1.33,1.3,2.27,2.9,2.27a2.17,2.17,0,0,0,2.3-2.18c0-3.18-6.41-2.09-6.41-6.57a4,4,0,0,1,4.23-4,4.31,4.31,0,0,1,3.79,2.63Z" style="fill:#fff"/><path d="M432.62,124.15a2.25,2.25,0,0,0-1.94-1.45,1.72,1.72,0,0,0-1.75,1.57c0,1.3,1.63,1.79,3.3,2.48s3.3,1.7,3.3,4.09a4.65,4.65,0,0,1-4.81,4.63,5.11,5.11,0,0,1-5-3.6l2.15-.91c.61,1.33,1.3,2.27,2.91,2.27a2.17,2.17,0,0,0,2.3-2.18c0-3.18-6.42-2.09-6.42-6.57a4.05,4.05,0,0,1,4.24-4,4.29,4.29,0,0,1,3.78,2.63Z" style="fill:#fff"/><path d="M440.7,128a7.48,7.48,0,1,1,7.48,7.48A7.48,7.48,0,0,1,440.7,128m2.43,0a5.06,5.06,0,1,0,5.05-5.26,5,5,0,0,0-5.05,5.26" style="fill:#fff"/><path d="M464.44,122.57h.06a4.76,4.76,0,0,1,4.05-2.11c3.94,0,4.84,2.84,4.84,6.17v8.45H471v-8c0-2.3-.19-4.35-3-4.35-3.32,0-3.53,3.08-3.53,5.63v6.75H462V120.85h2.43Z" style="fill:#fff"/><path d="M486.78,124.15a2.27,2.27,0,0,0-1.94-1.45,1.72,1.72,0,0,0-1.76,1.57c0,1.3,1.64,1.79,3.3,2.48s3.3,1.7,3.3,4.09a4.65,4.65,0,0,1-4.81,4.63,5.1,5.1,0,0,1-5-3.6L482,131c.6,1.33,1.29,2.27,2.9,2.27a2.17,2.17,0,0,0,2.3-2.18c0-3.18-6.42-2.09-6.42-6.57a4.05,4.05,0,0,1,4.24-4,4.29,4.29,0,0,1,3.78,2.63Z" style="fill:#fff"/><path d="M288.8,159.4h0A4,4,0,0,1,285.5,161c-2.79,0-4.54-2.35-4.54-5s1.71-5,4.56-5a4.1,4.1,0,0,1,3.24,1.61h0v-8.51h1.62v16.64H288.8Zm-6.19-3.53c0,1.86,1.09,3.61,3.11,3.61s3.16-1.67,3.16-3.59a3.17,3.17,0,0,0-3.18-3.43,3.22,3.22,0,0,0-3.09,3.41" style="fill:#fff"/><path d="M296.23,156.32a3.07,3.07,0,0,0,3.11,3.16,3.25,3.25,0,0,0,2.89-1.95l1.36.78a4.77,4.77,0,0,1-4.37,2.67,4.6,4.6,0,0,1-4.64-4.89c0-2.8,1.63-5.12,4.6-5.12s4.66,2.52,4.49,5.35Zm5.75-1.38a2.89,2.89,0,0,0-2.78-2.48,3,3,0,0,0-2.88,2.48Z" style="fill:#fff"/><path d="M309.45,152.58h0a4,4,0,0,1,3.27-1.61c2.78,0,4.54,2.4,4.54,5s-1.72,5-4.56,5a4,4,0,0,1-3.25-1.59h0V166h-1.61V151.23h1.61Zm-.08,3.29c0,1.86,1.09,3.61,3.11,3.61s3.16-1.67,3.16-3.59a3.17,3.17,0,0,0-3.18-3.43,3.22,3.22,0,0,0-3.09,3.41" style="fill:#fff"/><path d="M323.07,156.52c0,1.59.19,3,2.14,3s2.14-1.37,2.14-3v-5.29H329v5.47c0,2.52-.95,4.27-3.75,4.27s-3.75-1.75-3.75-4.27v-5.47h1.61Z" style="fill:#fff"/><path d="M336.19,147.66a1.15,1.15,0,1,1-1.15-1.14,1.15,1.15,0,0,1,1.15,1.14m-.34,13.05h-1.62v-9.48h1.62Z" style="fill:#fff"/><path d="M345.07,153.43a1.53,1.53,0,0,0-1.29-1,1.15,1.15,0,0,0-1.17,1c0,.87,1.09,1.19,2.2,1.66s2.19,1.13,2.19,2.72a3.09,3.09,0,0,1-3.2,3.08,3.4,3.4,0,0,1-3.35-2.39l1.43-.61c.4.89.87,1.51,1.94,1.51a1.44,1.44,0,0,0,1.53-1.45c0-2.12-4.28-1.39-4.28-4.38A2.7,2.7,0,0,1,343.9,151a2.88,2.88,0,0,1,2.52,1.75Z" style="fill:#fff"/><polygon points="361.19 149.1 362.08 147.52 365.41 147.52 365.41 162.73 363.71 162.73 363.71 149.1 361.19 149.1" style="fill:#fff"/><path d="M376.12,162.13l3.51-4.82,0,0a4.68,4.68,0,0,1-1.32.2,4.94,4.94,0,0,1-4.92-5,5.25,5.25,0,0,1,10.49,0,6.25,6.25,0,0,1-1.41,3.66l-5,6.89Zm-1.06-9.74a3.55,3.55,0,0,0,7.09,0,3.55,3.55,0,1,0-7.09,0" style="fill:#fff"/><path d="M397.57,161.16v1.57h-9.84l7.12-8.41a3.9,3.9,0,0,0,1-2.54,3,3,0,0,0-3-2.94,3,3,0,0,0-3.06,3.12h-1.7a4.74,4.74,0,0,1,9.48-.2,4.71,4.71,0,0,1-1.15,3.21l-5.26,6.19Z" style="fill:#fff"/><path d="M407,149.1l-1,3.24.91-.08a5.05,5.05,0,0,1,5.06,5.31,5.4,5.4,0,0,1-5.59,5.42,5.27,5.27,0,0,1-4.65-2.72l1.35-1a3.9,3.9,0,0,0,3.37,2.12,3.74,3.74,0,0,0,3.83-3.89,3.65,3.65,0,0,0-3.79-3.69,5.37,5.37,0,0,0-2.89,1l2.2-7.28h6v1.58Z" style="fill:#fff"/><path d="M175.31,92a29.89,29.89,0,0,1-9.88-4.64l4.36-9.68a29.28,29.28,0,0,0,8.49,4.2,31.84,31.84,0,0,0,9.84,1.59q5.48,0,8.09-1.62a4.92,4.92,0,0,0,2.62-4.33,4.1,4.1,0,0,0-1.55-3.29,11.6,11.6,0,0,0-4-2.1c-1.62-.53-3.8-1.12-6.55-1.75a90.15,90.15,0,0,1-10.39-3,17,17,0,0,1-6.95-4.84,13.1,13.1,0,0,1-2.89-8.89,15.43,15.43,0,0,1,2.62-8.77,17.59,17.59,0,0,1,7.89-6.23,32.3,32.3,0,0,1,12.89-2.3,42.55,42.55,0,0,1,10.4,1.27,30.64,30.64,0,0,1,8.88,3.65l-4,9.76a31,31,0,0,0-15.39-4.36q-5.4,0-8,1.74a5.34,5.34,0,0,0-2.58,4.6,4.5,4.5,0,0,0,3,4.25A46.35,46.35,0,0,0,191.37,60a91,91,0,0,1,10.4,3,17.29,17.29,0,0,1,6.94,4.76q2.89,3.26,2.9,8.81A15.2,15.2,0,0,1,209,85.24a17.86,17.86,0,0,1-8,6.23A32.54,32.54,0,0,1,188,93.77,45.37,45.37,0,0,1,175.31,92" style="fill:#fff"/><path d="M230.92,90a27.74,27.74,0,0,1-10.87-10.28A28.11,28.11,0,0,1,216.13,65a28.1,28.1,0,0,1,3.92-14.71,27.74,27.74,0,0,1,10.87-10.28,34.38,34.38,0,0,1,31.15,0,28.33,28.33,0,0,1,0,50,34.38,34.38,0,0,1-31.15,0m24.48-9.48a16.22,16.22,0,0,0,6.23-6.31A18.54,18.54,0,0,0,263.89,65a18.53,18.53,0,0,0-2.26-9.2,16.22,16.22,0,0,0-6.23-6.31,18.6,18.6,0,0,0-17.77,0,16.22,16.22,0,0,0-6.23,6.31,18.53,18.53,0,0,0-2.26,9.2,18.54,18.54,0,0,0,2.26,9.21,16.22,16.22,0,0,0,6.23,6.31,18.6,18.6,0,0,0,17.77,0" style="fill:#fff"/><path d="M321.18,92.82,310.47,77.34H298.64V92.82H285.79V37.27h24a31.06,31.06,0,0,1,12.82,2.46A18.38,18.38,0,0,1,334,57.43,18.07,18.07,0,0,1,322.53,75L335,92.82Zm-3.25-42.57q-3-2.51-8.81-2.5H298.64V67.11h10.48q5.79,0,8.81-2.54a8.81,8.81,0,0,0,3-7.14,8.79,8.79,0,0,0-3-7.18" style="fill:#fff"/><polygon points="386.32 82.5 386.32 92.81 343.32 92.81 343.32 37.27 385.29 37.27 385.29 47.59 356.09 47.59 356.09 59.65 381.88 59.65 381.88 69.65 356.09 69.65 356.09 82.5 386.32 82.5" style="fill:#fff"/><path d="M395.76,37.27H421a35.49,35.49,0,0,1,16,3.45,25.87,25.87,0,0,1,10.79,9.73A27.25,27.25,0,0,1,451.62,65a27.29,27.29,0,0,1-3.85,14.6A25.78,25.78,0,0,1,437,89.36a35.49,35.49,0,0,1-16,3.46H395.76Zm24.6,45q8.33,0,13.29-4.64t5-12.58c0-5.28-1.66-9.48-5-12.57s-7.74-4.64-13.29-4.64H408.62V82.26Z" style="fill:#fff"/><rect x="460.51" y="56.58" width="12.85" height="36.24" style="fill:#fff"/><rect x="460.51" y="37.27" width="12.85" height="12.86" style="fill:#fff"/><path d="M491.25,92a30,30,0,0,1-9.88-4.64l4.37-9.68a29.28,29.28,0,0,0,8.49,4.2,31.84,31.84,0,0,0,9.84,1.59c3.65,0,6.34-.54,8.09-1.62a4.92,4.92,0,0,0,2.62-4.33,4.13,4.13,0,0,0-1.55-3.29,11.56,11.56,0,0,0-4-2.1c-1.61-.53-3.79-1.12-6.54-1.75a91,91,0,0,1-10.4-3,16.92,16.92,0,0,1-6.94-4.84,13.1,13.1,0,0,1-2.9-8.89,15.51,15.51,0,0,1,2.62-8.77,17.67,17.67,0,0,1,7.9-6.23,32.24,32.24,0,0,1,12.89-2.3,42.47,42.47,0,0,1,10.39,1.27,30.7,30.7,0,0,1,8.89,3.65l-4,9.76a31,31,0,0,0-15.39-4.36c-3.6,0-6.25.58-8,1.74a5.34,5.34,0,0,0-2.58,4.6,4.5,4.5,0,0,0,3,4.25A46.72,46.72,0,0,0,507.32,60a90.75,90.75,0,0,1,10.39,3,17.32,17.32,0,0,1,6.95,4.76q2.9,3.26,2.89,8.81a15.2,15.2,0,0,1-2.66,8.69,17.89,17.89,0,0,1-8,6.23A32.58,32.58,0,0,1,504,93.77,45.49,45.49,0,0,1,491.25,92" style="fill:#fff"/><g style="isolation:isolate"><g style="clip-path:url(#clip-path-3)"><g style="clip-path:url(#clip-path-4)"><rect x="41.08" y="52.94" width="61.58" height="61.5" transform="translate(-34.77 55.44) rotate(-34.51)" style="fill:url(#Dégradé_sans_nom_15)"/></g></g></g><g style="isolation:isolate"><g style="clip-path:url(#clip-path-5)"><g style="clip-path:url(#clip-path-6)"><rect x="50.62" y="96.93" width="100.52" height="64.03" style="fill:url(#Dégradé_sans_nom_14)"/></g></g></g></g><g style="clip-path:url(#clip-path-7)"><rect x="15.31" y="56.47" width="130.4" height="100" style="fill:url(#Dégradé_sans_nom_13)"/></g><g style="clip-path:url(#clip-path-8)"><rect x="1.61" y="24.91" width="121.09" height="108" style="fill:url(#Dégradé_sans_nom_12)"/></g><g style="clip-path:url(#clip-path-9)"><rect x="0.57" y="14.12" width="84.53" height="72.65" style="fill:url(#Dégradé_sans_nom_11)"/></g></g></svg>